# xmcd CD database file
#
# Track frame offsets:
#	150
#	19749
#	36890
#	56488
#
# Disc length: 979 seconds
#
# Revision: 9
# Processed by: cddbd v1.5.2PL0 Copyright (c) Steve Scherf et al.
# Submitted via: CDex 1.70beta3
#
DISCID=2a03d104
DTITLE=MELL - Virgin's high！/kicks！
DYEAR=2007
DGENRE=Anime
TTITLE0=Virgin's high！
TTITLE1=kicks！
TTITLE2=Virgin high！ -instrumental-
TTITLE3=kicks！ -instrumental-
EXTD=YEAR: 2007
EXTT0=
EXTT1=
EXTT2=
EXTT3=
PLAYORDER=
